<svg width="28" height="19" viewBox="0 0 28 19" fill="none" xmlns="http://www.w3.org/2000/svg">
<path d="M16 15.5H1C0.723858 15.5 0.5 15.2761 0.5 15V6C0.5 5.72386 0.723857 5.5 1 5.5H10.963C11.2391 5.5 11.463 5.72386 11.463 6V9.17647C11.463 10.0049 12.1345 10.6765 12.963 10.6765H14.4815H16.5V15C16.5 15.2761 16.2761 15.5 16 15.5Z" stroke="black"/>
<path d="M12 0.5H27C27.2761 0.5 27.5 0.723858 27.5 1V10C27.5 10.2761 27.2761 10.5 27 10.5H13C12.1716 10.5 11.5 9.82843 11.5 9V1C11.5 0.723858 11.7239 0.5 12 0.5Z" stroke="black"/>
<path d="M25.8043 12.8696L23.7157 10.4879L25.8043 10.023L25.8043 12.8696Z" fill="black"/>
<path d="M2.77607 17.8661L4.87375 15.4948L2.788 15.0212L2.77607 17.8661Z" fill="black"/>
</svg>
